<svg xmlns="http://www.w3.org/2000/svg" viewBox="0 0 1064.8 438.98"><g id="Capa_2" data-name="Capa 2"><path d="M612.41,184.28c-4.67,7.69-7.81,15.28-13.85,20.93-17.11,16-43.42,17.08-57.18-8.55a71.75,71.75,0,0,1-7.74-21.92c-1.28-7.4-3.44-8.57-10.76-7.33a45.33,45.33,0,0,0-10.21,3.1c-4.65,2-7.82,4.93-9.51,10.2-4.14,12.87-11,24-22.11,32.41-10.59,8-22.52,10.22-35.27,9.89-7.64-.19-15.24-1-22.52-3.5-15-5.22-25.77-14.86-30.4-30.39-1.5-5-4.07-7-9.43-6.77-11.27.37-11.39.08-12.41,10.79-1.49,15.81-2.23,31.76-6.53,47.13-5.1,18.26-11.78,35.88-26.06,49.26a114.91,114.91,0,0,1-23.67,16.92c-28.05,15.28-58.49,23.71-89.28,31.16-21.9,5.29-44.19,7.87-66.56,6.48-25.83-1.61-47.41-12.88-63-34-9.94-13.47-19-27.56-24.76-43.43a184.71,184.71,0,0,1-9.61-37.1c-2.72-19.41-5.52-39-4.19-58.6C59.1,145,64.64,120.19,82.87,100c11.42-12.66,25.92-20.36,41.45-26.53A142,142,0,0,1,178,63.42c19.63.11,39.29-.48,58.76,3.1,18.66,3.42,37.5,6.25,53.68,17.3,20.16,13.78,33.29,32.33,38.63,56.38,1.23,5.54,1.9,11.16,3.29,16.65.9,3.55,11.14,6.36,13.55,3.66,1.51-1.7,1-4.15.54-6.1-2.27-9.64-2.51-19.57-4.41-29.26-4.08-20.89-11-40.78-22.32-58.79-9.16-14.61-22.8-24.31-39-30.14a176.47,176.47,0,0,0-59.55-10.71c-10.71,0-21.42-.47-32.12-.76-17.18-.46-34.12,2.46-51.13,5.08a219.74,219.74,0,0,0-43.7,11.06C65.7,51.57,44.75,69.31,38,101.27c-6.4,30.31-7.77,60.7-6.91,91.45A319.82,319.82,0,0,0,34,231c4.21,28.35,8.31,56.72,15.74,84.5,3.6,13.45,6.26,27.15,9.9,40.62,5.88,21.79,13.36,43,20.92,64.23,3,8.47,2.29,10.89-5.25,15.86a88.42,88.42,0,0,1-8.78,5.24c-5.95,3-10.15,1.36-12.12-5q-5.12-16.5-9.69-33.18c-2.5-9.21-5.93-18.13-8-27.48-2.82-12.63-6.19-25.13-8.93-37.78-3.29-15.19-6.28-30.45-9.16-45.72-2.45-13.05-4.21-26.2-5.48-39.44-.83-8.68-1.86-17.36-3.18-26a169.21,169.21,0,0,1-1.49-23.29c-.25-19.82-.45-39.65-.19-59.47C8.64,119.69,12.88,96,23.4,73.75,34.92,49.38,52.66,31.69,78.32,22.24,105.2,12.35,133,7.36,161.48,5.77c16.21-.9,32.4-1.76,48.65-1.83,14.66-.06,29,2.94,43.44,4.26a144,144,0,0,1,33.6,7.5c23,7.87,42.37,20,54.59,42.49,9.73,17.91,16.31,36.58,21,56.24,3.4,14.25,4.74,28.72,6.37,43.19.34,3,1.32,4.52,4.39,4.54a29.71,29.71,0,0,1,3.37.48c10.92,1.41,11.8,1,16.89-8.36C403.44,136.51,423,128,443,131.93a58.59,58.59,0,0,1,12.14,3.37c15.64,6.69,18.92,25.75,6.31,37.42A36.55,36.55,0,0,1,438,182.38c-5.14.29-10.27,1.3-15.52.41-4-.69-4.82.65-2.92,4.28a27,27,0,0,0,15.51,13.4c16.35,5.41,31.72,2.89,45.08-8.3,6-5,8.57-12.08,9-19.87.11-2.1,0-4.22.05-6.33,0-7.48,2.9-11.54,10.29-13.21,8.9-2,17.38-5.25,26-8.07a42.58,42.58,0,0,1,12.43-2.15c11.85-.2,18.95,6.64,21.72,18.14,2,8.27.74,16.78,3.52,24.93,3.48,10.23,12.15,14.15,21.9,9.52,13.08-6.19,19-17.27,21-30.72,1.53-10,12-18.38,22-16.71,4.11.69,5.75,3.44,5.38,7.38a137.83,137.83,0,0,0-1,17.48A41.59,41.59,0,0,0,636.37,189c4.36,9.3,13.42,12.09,23.93,8.09,11.4-4.33,16.4-13.75,19.81-24.33a74.73,74.73,0,0,0,3.34-16.65c.63-7.37,14.36-15,21.07-12.31,3.06,1.24,3.41,3.92,2.65,6.54-2.1,7.28-.8,14.4,0,21.7,1.24,11.16,9.11,16.22,17.68,20.74A37.77,37.77,0,0,0,735.54,196c4.64.87,6.55,3.78,5.93,8.38-1.76,12.91-11.8,18-23.21,12.1A61.67,61.67,0,0,1,698.7,200c-4.76-5.88-4.89-6.09-9.78-.16a50.77,50.77,0,0,1-24.82,16.35c-22,6.89-45-5.58-50.62-27.61C613.2,187.44,612.93,186.34,612.41,184.28Zm-265.58,9.26c0-3.09-.14-6.19,0-9.26.23-4.21-2.24-4.76-5.59-4.69s-6.23-.27-6.27,4.5c-.07,8.07-.25,16.09-1.67,24.15-3.2,18.28-10.48,34.07-25.63,45.42-15.59,11.7-32.47,20.57-51.76,24.94-17.77,4-35.53,7.45-53.8,7.24-10.7-.12-21.29-1.72-31.83-3.64-16-2.92-27.82-11.79-36.29-25.42-6.83-11-11.75-22.67-13.45-35.64-2-15.07-5.33-30-2.34-45.39,1.16-6,3.18-11.51,5.07-17.19,9.23-27.63,35.38-41.6,58.75-46.15,12.16-2.36,24.62-1.25,36.95-1.09A66.6,66.6,0,0,1,234.46,113c23.06,5.88,40.91,18.71,50.94,40.77,2.41,5.29,5.91,7.37,11,7.78,4.2.33,8.43.34,12.65.42,2.52,0,3.55-1.21,3-3.73-4.4-20.29-13.51-37.95-30.05-50.92-18.74-14.71-41.09-19.73-64.17-21-13.21-.71-26.5-1.6-39.83-.48-22.74,1.91-44.66,6-63.71,19.67-8.46,6.07-15.69,13.57-20.29,22.67-9.18,18.15-12,37.72-10.72,58.08,1.38,22.87,3.51,45.55,10.7,67.47,5.1,15.56,11.93,30,23.2,42.32,10.7,11.63,23.11,19.45,38.93,22.13,29.83,5.05,58.44-1,86.77-9.07,16.64-4.73,33.15-9.74,49.08-17,19.14-8.73,34.38-20.61,43.45-39.78C344.24,233.71,345,213.52,346.83,193.54Zm-82.47-34.6c.35-2.52-1-3.86-1.89-5.32a42,42,0,0,0-20.12-17c-14.35-6.14-29.35-6.7-44.82-6-28.07,1.28-49.72,21.29-55.65,47.52-3.17,14-.92,27.64,1.91,41.41,4.41,21.5,18.37,35.88,40,40.05,15.15,2.93,30.45,2.41,45.62.73,16.42-1.82,32.76-4.17,48.05-11.33,26.55-12.41,40.53-36,38.11-65.13-.23-2.76-1.18-4.22-4.09-4.21-5.36,0-10.72,0-16.08-.16-2.36-.07-3.12,1-3.24,3.16-.18,3.4-.54,6.79-.94,10.17-2,16.49-8.35,30.45-23.57,38.69s-32,10.09-49.1,8.13c-9.81-1.12-19.34-3.71-27.31-9.5-13-9.46-19.38-22.8-19.9-38.88-.39-12.31,6.78-24.16,16.36-29,12.76-6.4,26.14-6.56,39.86-5.6C239.77,157.52,252.12,156.74,264.36,158.94ZM243.77,177.7v0c-3.9,0-7.8,0-11.7,0-6,.08-12-.76-17.77,1.84-6.35,2.87-11,7.39-11.61,14.43s2.17,13,8.9,16.54a50.39,50.39,0,0,0,29.1,5.8c17.35-1.79,30.5-16.59,30.08-33.17-.1-4-1.63-5.54-5.55-5.46C258.07,177.8,250.92,177.7,243.77,177.7Zm180.54-13.92c6.57.31,12.28-1.16,18.05-2,4.82-.71,7.88-4.46,7.79-8.57-.08-3.89-3-6.66-8.16-7.47a16.67,16.67,0,0,0-4.35,0c-7.31.79-12.7,4.6-16.47,10.79-1.24,2-3.44,4.49-2.5,6.49S422.81,163.49,424.31,163.78Z" transform="translate(-8.2 -3.94)" fill="#c40d3c"/><path d="M655.92,143.6c-4.5,0-8.29-.84-10.12-5s.22-8,3-10.59c6.29-6,13-11.75,19.77-17.2,5.2-4.17,11.23-2.22,16.79-.69,3.5,1,8.29,1,9.06,6,.74,4.75-3.38,6.75-6.27,9.08a178,178,0,0,1-25.18,16.4C660.64,142.92,658.24,143.88,655.92,143.6Z" transform="translate(-8.2 -3.94)" fill="#c40d3c"/><path d="M739.8,132.33c.63-3.12,2.53-5.13,9.81-5.13,15.19,0,19,7.58,19,7.58-1.58,6.92-3.48,26.76-3.48,39.48,17.41-36.58,34.49-40.81,44.62-40.81,18.67.22,28.8,8.92,29.11,25.19-.63,17.18-8.86,38.81-8.86,49.51,0,3.79,1.27,6,3.8,6,14.24,0,34.49-41,40.5-57.31,4.43,0,8.86,0,8.86,3.35-.31,3.34-23.1,64.89-57.9,64.89-13.93,0-23.1-11.37-23.1-27,.31-13.38,7.27-31,7.27-42.82,0-4.46-.63-6.91-5.38-7.36-9.17,0-25,18.51-32.59,40.81-4.43,14.05.64,26.31-14.87,26.31-15.19,0-18-31.66-18-57.75C738.53,147.72,739.17,138.8,739.8,132.33Zm73.73-25.86a67,67,0,0,1-23.1-4.46c-7.91-2.9-9.5-3.35-15.82-3.35a31.42,31.42,0,0,0-13.93,3.57c-3.16,1.56-4.43,2-6.64,2-4.75,0-7.28-7.64-7.28-10.76,0-7.14,11.08-11.6,22.47-11.6,10.76,0,28.16,8.7,39.87,8.7,12,0,17.42-7.49,19.93-7.8,5.63-.72,4.12,8.08,4.12,10.53C833.15,98.66,824.29,106.47,813.53,106.47Z" transform="translate(-8.2 -3.94)" fill="#c40d3c"/><path d="M911.62,133.22c14.56,0,33.54,11.6,33.54,39.92a77.27,77.27,0,0,1-.63,12.49c14.24-4.69,23.73-16.73,29.11-29,3.8,0,8.54,0,8.54,3.34a4.11,4.11,0,0,1-.31,1.79s-12,24.75-39.56,32.33c-7,21-24.36,26.54-34.8,26.54-17.09,0-39.87-13.16-39.87-40.36C867.64,152.4,888.2,133.22,911.62,133.22Zm2.22,77.83c7.91,0,13.6-6.47,17.08-14.94a32,32,0,0,1-4.43.22c-12.34,0-23.73-4.24-31.32-10.93C896.75,197.22,902.13,211.05,913.84,211.05ZM899,160.87c0,14.72,19,26.76,33.86,26.76h.63a52.46,52.46,0,0,0,1.27-12.26c0-12.49-5.38-32.33-19.3-32.33C906.56,143,899,152.18,899,160.87Z" transform="translate(-8.2 -3.94)" fill="#c40d3c"/><path d="M1063.82,157.08c2.85,0,9.18.23,9.18,2.68-1.58,6.69-26,63.33-62.34,63.33-31,0-37.65-33.89-37.65-61.1,0-31.22,14.55-95,50.94-95,16.77,0,20.57,8.48,21.52,24.53,0,6.69-1.58,14.5-4.75,23.2-8.86,23.19-25,31.44-39.23,37.9a65.74,65.74,0,0,0-.32,8.48c0,18.73,4.43,50.17,17.4,50.17C1041,211.27,1060.34,162.88,1063.82,157.08Zm-34.17-79.6c-9.81,0-27.85,51.51-27.85,64,22.15-7.58,32.91-36.57,32.91-52.84C1034.4,82.6,1033.76,78.37,1029.65,77.48Z" transform="translate(-8.2 -3.94)" fill="#c40d3c"/></g></svg>